Coordinates
version=1
nRows=14
nColumns=40
inDegrees=yes

Units are S.I. units (second, meters, Newtons, ...)
Angles are in degrees.

endheader
time	pelvis_tilt	pelvis_list	pelvis_rotation	pelvis_tx	pelvis_ty	pelvis_tz	hip_flexion_r	hip_adduction_r	hip_rotation_r	knee_angle_r	knee_angle_r_beta	ankle_angle_r	subtalar_angle_r	mtp_angle_r	hip_flexion_l	hip_adduction_l	hip_rotation_l	knee_angle_l	knee_angle_l_beta	ankle_angle_l	subtalar_angle_l	mtp_angle_l	lumbar_extension	lumbar_bending	lumbar_rotation	arm_flex_r	arm_add_r	arm_rot_r	elbow_flex_r	pro_sup_r	wrist_flex_r	wrist_dev_r	arm_flex_l	arm_add_l	arm_rot_l	elbow_flex_l	pro_sup_l	wrist_flex_l	wrist_dev_l
      0.00000000	     12.39069062	     19.35984792	     70.55098354	      0.62057260	      0.99431921	     -0.91333895	    -29.79755064	      4.06359524	     13.41027036	     16.27909193	      0.28412375	     19.72288621	      0.00000000	      0.00000000	      0.71512295	    -13.61186169	    -16.20101820	      4.39387252	      0.07668754	      6.92161211	      0.00000000	      0.00000000	    -41.16393549	      2.30357925	     18.28805973	     17.21812869	    -18.66565777	      6.08356284	    144.41995646	     87.20808766	      0.00000000	      0.00000000	      4.64157958	     -3.47265051	      2.58267974	    141.83341816	     86.34860835	      0.00000000	      0.00000000
      0.01000000	      8.57224121	     17.38551232	     79.45721926	      0.60920326	      0.98547629	     -0.93169607	    -29.84446529	      3.86667010	      2.81395135	     13.71949417	      0.23945034	     19.08778677	      0.00000000	      0.00000000	      6.80589772	     -9.51977498	     -9.75861601	      7.87703476	      0.13748019	      8.32186329	      0.00000000	      0.00000000	    -35.61531330	      4.43798776	     10.81007866	     12.82870379	    -16.78630011	      5.93561293	    144.37965384	     87.20903327	      0.00000000	      0.00000000	      2.79922569	     -4.84681210	      3.08098367	    141.36346664	     86.00139369	      0.00000000	      0.00000000
      0.02000000	      8.51240385	     17.48842762	     79.23461865	      0.60753491	      0.98400897	     -0.93341287	    -29.84500852	      3.35374902	      2.84286928	     15.54009456	      0.27122582	     18.89981676	      0.00000000	      0.00000000	      7.11095933	     -9.34755402	    -10.23233302	     10.05181625	      0.17543729	      7.92375871	      0.00000000	      0.00000000	    -35.52903880	      4.29771813	     10.87251416	     12.67963620	    -16.62859563	      5.80847929	    144.39167011	     87.21336715	      0.00000000	      0.00000000	      2.83182266	     -4.95174176	      3.18262290	    141.30869624	     86.00338106	      0.00000000	      0.00000000
      0.03000000	      8.29763944	     17.68811314	     78.99302326	      0.60570756	      0.98295982	     -0.93532448	    -29.84578058	      2.66317260	      2.97000152	     17.28079614	      0.30160679	     18.43731657	      0.00000000	      0.00000000	      7.05964640	     -8.91760564	    -10.53091103	     11.45960440	      0.20000783	      7.53302504	      0.00000000	      0.00000000	    -35.46479299	      4.00351136	     10.84922775	     12.57096648	    -16.52861000	      5.71330961	    144.37369657	     87.22870568	      0.00000000	      0.00000000	      2.84320216	     -5.03291861	      3.19280762	    141.28107025	     86.01037316	      0.00000000	      0.00000000
      0.04000000	      7.66087461	     18.34072629	     77.99504715	      0.60423829	      0.98285462	     -0.93757336	    -29.84818538	      0.94671270	      3.24283626	     19.75910828	      0.34486150	     17.97648186	      0.00000000	      0.00000000	      5.92980505	     -7.93128811	    -11.86772046	     11.99101937	      0.20928277	      6.01902091	      0.00000000	      0.00000000	    -35.77211271	      2.84667668	     11.23549964	     12.41382681	    -16.49506873	      5.72963594	    144.38798409	     87.22866833	      0.00000000	      0.00000000	      2.72378195	     -5.01088292	      3.29656275	    141.29038492	     85.97545812	      0.00000000	      0.00000000
      0.05000000	      7.03003369	     18.95821679	     77.39381382	      0.60264019	      0.98283483	     -0.93969256	    -29.84670389	     -0.47595350	      3.54415501	     22.12077850	      0.38608042	     17.02402242	      0.00000000	      0.00000000	      5.11127580	     -6.97383961	    -12.49915407	     12.86104955	      0.22446766	      4.89426131	      0.00000000	      0.00000000	    -36.02311225	      1.86538231	     11.29281514	     12.28643847	    -16.33440534	      5.75660667	    144.35306793	     87.22111189	      0.00000000	      0.00000000	      2.74542701	     -5.12614800	      3.31115990	    141.30656624	     85.93750882	      0.00000000	      0.00000000
      0.06000000	      6.41752287	     19.68445003	     76.76797360	      0.60120299	      0.98321957	     -0.94207984	    -29.84269478	     -1.87161113	      3.97958721	     24.58894546	      0.42915806	     15.65418302	      0.00000000	      0.00000000	      4.21785969	     -6.06968455	    -13.15386483	     14.04863957	      0.24519502	      4.58627467	      0.00000000	      0.00000000	    -36.33489335	      0.88942749	     11.34485971	     12.13597332	    -16.19719735	      5.92915826	    144.34518811	     87.19593637	      0.00000000	      0.00000000	      2.74944391	     -5.30372787	      3.14789229	    141.32946583	     85.94610459	      0.00000000	      0.00000000
      0.07000000	      5.79108288	     20.54672388	     76.22893733	      0.59987152	      0.98409536	     -0.94462880	    -29.83382161	     -3.21518803	      4.42078404	     27.24574249	      0.47552791	     14.45379058	      0.00000000	      0.00000000	      3.19160623	     -5.11364369	    -13.51605925	     15.40969484	      0.26894991	      4.42777462	      0.00000000	      0.00000000	    -36.74148512	     -0.11890885	     11.30115624	     11.95021897	    -15.93545184	      5.90708201	    144.31724769	     87.19454031	      0.00000000	      0.00000000	      2.73536100	     -5.54912968	      3.11146426	    141.42270232	     85.91946083	      0.00000000	      0.00000000
      0.08000000	      5.15879256	     21.33686413	     76.09716653	      0.59798576	      0.98505142	     -0.94783862	    -29.82079755	     -4.33100631	      4.58201726	     29.76947758	      0.51957540	     12.68377741	      0.00000000	      0.00000000	      2.35363178	     -4.16438396	    -13.51253267	     16.99728645	      0.29665861	      4.92020387	      0.00000000	      0.00000000	    -36.99643119	     -0.87799547	     10.90422061	     11.67509403	    -15.55981955	      5.77544178	    144.30720715	     87.21205093	      0.00000000	      0.00000000	      2.59676323	     -5.78121208	      3.00372037	    141.54423308	     85.89069189	      0.00000000	      0.00000000
      0.09000000	      4.15721671	     22.47876780	     75.65206298	      0.59623476	      0.98660385	     -0.95165219	    -29.80702313	     -6.15825541	      4.70713796	     32.68385050	      0.57044080	     10.54241924	      0.00000000	      0.00000000	      0.63346666	     -2.60490343	    -14.07478236	     17.60901079	      0.30733522	      5.10469229	      0.00000000	      0.00000000	    -37.42572273	     -2.19274438	     10.58631844	     11.29695741	    -15.23369170	      5.76793929	    144.27812814	     87.16859020	      0.00000000	      0.00000000	      2.37142102	     -6.03062095	      2.83277593	    141.69141952	     85.88699576	      0.00000000	      0.00000000
      0.10000000	      3.12906827	     23.71642778	     75.48870969	      0.59433854	      0.98854289	     -0.95527462	    -29.78480254	     -7.85682899	      4.68578590	     35.65757206	      0.62234204	      8.14056201	      0.00000000	      0.00000000	     -1.37841193	     -0.92326112	    -14.39224540	     17.72638868	      0.30938385	      5.20615688	      0.00000000	      0.00000000	    -37.99442560	     -3.42454318	     10.01455951	     10.96803057	    -14.84561118	      5.70798139	    144.28839061	     87.15848851	      0.00000000	      0.00000000	      2.20747939	     -6.33247039	      2.65424604	    141.93178079	     85.87349254	      0.00000000	      0.00000000
      0.11000000	      2.00279572	     24.95519691	     75.57577824	      0.59233379	      0.99063934	     -0.95892601	    -29.74789373	     -9.50929949	      4.50994450	     38.51718479	      0.67225169	      5.20340499	      0.00000000	      0.00000000	     -3.58545603	      0.93855586	    -14.46771075	     17.35511319	      0.30290387	      5.66578945	      0.00000000	      0.00000000	    -38.53955654	     -4.61914036	      9.18956814	     10.67841708	    -14.38405379	      5.65025057	    144.22002588	     87.21196919	      0.00000000	      0.00000000	      2.01739994	     -6.69919012	      2.44530389	    142.22665951	     85.85002538	      0.00000000	      0.00000000
      0.12000000	      1.20129942	     26.11253836	     75.80162919	      0.59031138	      0.99291754	     -0.96212438	    -29.67552036	    -10.60713588	      4.50416532	     41.23398063	      0.71966873	      1.63122558	      0.00000000	      0.00000000	     -5.79620934	      2.42593403	    -14.44270724	     16.89085383	      0.29480101	      6.48325208	      0.00000000	      0.00000000	    -39.16733558	     -5.39872476	      8.34694943	     10.44267729	    -13.92682437	      5.55273073	    144.23890052	     87.25267017	      0.00000000	      0.00000000	      1.88726529	     -7.09190221	      2.26189897	    142.55902180	     85.83585832	      0.00000000	      0.00000000
      0.13000000	      0.21234917	     27.44561177	     75.87390191	      0.58891922	      0.99559945	     -0.96516276	    -29.56305163	    -12.01931053	      4.57210283	     44.07515909	      0.76925664	     -1.50277906	      0.00000000	      0.00000000	     -8.49495149	      4.21674107	    -14.62586052	     15.73866145	      0.27469146	      6.49208924	      0.00000000	      0.00000000	    -39.92427314	     -6.50361667	      7.56091487	     10.18571043	    -13.43668250	      5.60510732	    144.17879707	     87.29326156	      0.00000000	      0.00000000	      1.81723937	     -7.67313374	      2.11917729	    142.83995965	     85.79996748	      0.00000000	      0.00000000
